<svg width="31" height="31" viewBox="0 0 31 31" fill="none" xmlns="http://www.w3.org/2000/svg">
<g clip-path="url(#clip0_77_9354)">
<path d="M30.6753 9.87449L29.3667 8.5852C29.0913 8.31393 28.7169 8.17712 28.3397 8.16863V5.01471C28.3397 3.94646 27.4577 3.07721 26.3733 3.07721H22.3248V0.911772C22.3248 0.597017 22.0659 0.341919 21.7464 0.341919H13.4181C13.0986 0.341919 12.8397 0.597017 12.8397 0.911772V3.07721H8.7912C7.70678 3.07721 6.82478 3.94646 6.82478 5.01471V17.6712C3.24297 17.7329 0.347168 20.6182 0.347168 24.1618C0.347168 25.8847 1.02629 27.5085 2.25801 28.7335C3.50238 29.9745 5.16516 30.6581 6.94045 30.6581C7.16236 30.6581 7.38252 30.6474 7.60031 30.6263C8.76163 30.5137 9.85224 30.0985 10.7887 29.4301C11.0414 29.2498 11.2831 29.0519 11.5111 28.8346H26.3733C27.4577 28.8346 28.3397 27.9653 28.3397 26.8971V14.271L30.6753 11.9698C31.2618 11.3922 31.2618 10.4521 30.6753 9.87449ZM13.9964 1.48162H21.1681V3.07721H13.9964V1.48162ZM6.94045 18.8051C9.93798 18.8051 12.377 21.2081 12.377 24.1618C12.377 25.3138 12.0032 26.409 11.3211 27.3226C10.7363 26.4221 9.88878 25.7332 8.90136 25.3381C9.47224 24.8173 9.83224 24.0752 9.83224 23.25C9.83224 21.6789 8.535 20.4007 6.94045 20.4007C5.3459 20.4007 4.04866 21.6789 4.04866 23.25C4.04866 24.0752 4.40866 24.8173 4.97954 25.3381C3.99206 25.7332 3.14455 26.4221 2.55972 27.3228C1.87786 26.4094 1.50388 25.314 1.50388 24.1618C1.50388 21.2081 3.94293 18.8051 6.94045 18.8051ZM5.20538 23.25C5.20538 22.3073 5.9839 21.5404 6.94045 21.5404C7.897 21.5404 8.67553 22.3073 8.67553 23.25C8.67553 24.1927 7.897 24.9596 6.94045 24.9596C5.9839 24.9596 5.20538 24.1927 5.20538 23.25ZM6.41976 29.4933C6.3635 29.4881 6.30846 29.4781 6.2526 29.4712C6.13761 29.457 6.02279 29.4423 5.90966 29.4211C5.84425 29.4088 5.7802 29.3922 5.7155 29.3776C5.61364 29.3546 5.51198 29.3312 5.41201 29.3025C5.34474 29.2832 5.27877 29.2606 5.21243 29.2388C5.11743 29.2075 5.02291 29.175 4.92995 29.1386C4.86341 29.1125 4.79787 29.0841 4.73244 29.0554C4.64252 29.016 4.55356 28.9746 4.46591 28.9303C4.40146 28.8977 4.33767 28.8639 4.27449 28.8287C4.18876 28.7809 4.10463 28.7303 4.02143 28.6777C3.96063 28.6394 3.89997 28.6008 3.84064 28.56C3.75795 28.503 3.67766 28.4423 3.59794 28.3806C3.54231 28.3375 3.48619 28.2953 3.43208 28.25C3.41251 28.2336 3.39444 28.2151 3.37507 28.1984C4.07751 26.9116 5.43716 26.0993 6.94044 26.0993C8.44372 26.0993 9.80329 26.9116 10.5058 28.1983C10.4862 28.2153 10.4678 28.234 10.448 28.2506C10.3941 28.2957 10.3383 28.3378 10.2829 28.3806C10.2032 28.4424 10.1228 28.5031 10.0401 28.5601C9.98061 28.601 9.91981 28.6397 9.85887 28.6781C9.77595 28.7305 9.69205 28.781 9.6066 28.8286C9.54323 28.8639 9.47918 28.8979 9.41445 28.9305C9.32719 28.9746 9.2386 29.0159 9.14908 29.0552C9.08325 29.0841 9.01734 29.1126 8.95038 29.1388C8.85775 29.1751 8.7636 29.2074 8.66897 29.2386C8.6024 29.2605 8.53621 29.2832 8.46871 29.3026C8.36886 29.3312 8.26728 29.3546 8.16556 29.3776C8.1008 29.3922 8.03667 29.4088 7.97121 29.4211C7.85859 29.4422 7.74424 29.4568 7.62978 29.471C7.57333 29.478 7.51767 29.4881 7.46083 29.4934C7.2889 29.5093 7.11545 29.5184 6.94045 29.5184C6.76533 29.5184 6.59177 29.5092 6.41976 29.4933ZM27.183 26.8971C27.183 27.3369 26.8197 27.6949 26.3733 27.6949H12.471C13.1611 26.6511 13.5337 25.4341 13.5337 24.1618C13.5337 20.9295 11.1229 18.2488 7.9815 17.7545V5.01471C7.9815 4.57486 8.34478 4.21691 8.7912 4.21691H26.3733C26.8197 4.21691 27.183 4.57486 27.183 5.01471V8.64173L18.0793 17.6111C18.0296 17.6599 17.9933 17.7186 17.9646 17.7812C17.9596 17.7921 17.9538 17.802 17.9495 17.813C17.9468 17.8203 17.9421 17.8266 17.9397 17.8339L16.6311 21.7023C16.5615 21.9068 16.6158 22.1328 16.7707 22.2853C16.881 22.3939 17.0287 22.4522 17.1797 22.4522C17.2411 22.4522 17.3026 22.4426 17.3627 22.423L21.2887 21.1335C21.2964 21.131 21.3031 21.1262 21.3106 21.1234C21.3213 21.1194 21.3308 21.1139 21.3413 21.1092C21.4051 21.0809 21.4651 21.0447 21.5146 20.9957L27.183 15.4107L27.183 26.8971ZM18.7411 19.069L20.035 20.3438L18.0942 20.9813L18.7411 19.069ZM29.8574 11.164L27.3624 13.6223L27.3456 13.6389L21.1057 19.7871L19.3062 18.0141L28.0587 9.39078C28.1888 9.26168 28.4179 9.2619 28.5489 9.39101L29.8574 10.6803C29.9925 10.8136 29.9925 11.0307 29.8574 11.164Z" fill="#890C25"/>
<path d="M20.0115 10.9412C20.0115 8.11328 17.6764 5.8125 14.8063 5.8125C11.9362 5.8125 9.60107 8.11328 9.60107 10.9412C9.60107 13.7691 11.9362 16.0699 14.8063 16.0699C17.6764 16.0699 20.0115 13.7691 20.0115 10.9412ZM14.8063 14.9301C12.5737 14.9301 10.7578 13.1407 10.7578 10.9412C10.7578 8.74168 12.5737 6.95221 14.8063 6.95221C17.0389 6.95221 18.8548 8.74168 18.8548 10.9412C18.8548 13.1407 17.0389 14.9301 14.8063 14.9301Z" fill="#890C25"/>
<path d="M16.2479 9.39858L14.3434 11.2751L13.3642 10.3103C13.1383 10.0877 12.7723 10.0877 12.5464 10.3103C12.3205 10.5329 12.3205 10.8936 12.5464 11.1161L13.9345 12.4838C14.0474 12.5951 14.1952 12.6507 14.3434 12.6507C14.4916 12.6507 14.6393 12.5951 14.7523 12.4838L17.0657 10.2044C17.2916 9.98179 17.2916 9.62118 17.0657 9.39858C16.8398 9.17598 16.4738 9.17598 16.2479 9.39858Z" fill="#890C25"/>
<path d="M21.7463 6.95221H24.5224C24.8419 6.95221 25.1008 6.69711 25.1008 6.38235C25.1008 6.0676 24.8419 5.8125 24.5224 5.8125H21.7463C21.4269 5.8125 21.168 6.0676 21.168 6.38235C21.168 6.69711 21.4269 6.95221 21.7463 6.95221Z" fill="#890C25"/>
<path d="M21.7463 9.23162H24.5224C24.8419 9.23162 25.1008 8.97653 25.1008 8.66177C25.1008 8.34702 24.8419 8.09192 24.5224 8.09192H21.7463C21.4269 8.09192 21.168 8.34702 21.168 8.66177C21.168 8.97653 21.4269 9.23162 21.7463 9.23162Z" fill="#890C25"/>
<path d="M24.985 24.5037H17.1194C16.7999 24.5037 16.541 24.7588 16.541 25.0735C16.541 25.3883 16.7999 25.6434 17.1194 25.6434H24.985C25.3045 25.6434 25.5634 25.3883 25.5634 25.0735C25.5634 24.7588 25.3045 24.5037 24.985 24.5037Z" fill="#890C25"/>
<path d="M23.1345 22.9081H24.9853C25.3047 22.9081 25.5636 22.653 25.5636 22.3382C25.5636 22.0235 25.3047 21.7684 24.9853 21.7684H23.1345C22.8151 21.7684 22.5562 22.0235 22.5562 22.3382C22.5562 22.653 22.8151 22.9081 23.1345 22.9081Z" fill="#890C25"/>
</g>
<defs>
<clipPath id="clip0_77_9354">
<rect width="31" height="31" fill="white"/>
</clipPath>
</defs>
</svg>
