<svg width="76" height="76" viewBox="0 0 76 76" fill="none" xmlns="http://www.w3.org/2000/svg">
<path fill-rule="evenodd" clip-rule="evenodd" d="M39.2503 36.9646L47.3566 45.0709L45.5899 46.8396L36.7503 38V25.5H39.2503V36.9646ZM38.0003 58.8334C26.4941 58.8334 17.167 49.5063 17.167 38C17.167 26.4938 26.4941 17.1667 38.0003 17.1667C49.5066 17.1667 58.8337 26.4938 58.8337 38C58.8337 49.5063 49.5066 58.8334 38.0003 58.8334ZM38.0003 56.3334C42.8626 56.3334 47.5258 54.4018 50.964 50.9636C54.4021 47.5255 56.3337 42.8623 56.3337 38C56.3337 33.1377 54.4021 28.4746 50.964 25.0364C47.5258 21.5982 42.8626 19.6667 38.0003 19.6667C33.138 19.6667 28.4749 21.5982 25.0367 25.0364C21.5985 28.4746 19.667 33.1377 19.667 38C19.667 42.8623 21.5985 47.5255 25.0367 50.9636C28.4749 54.4018 33.138 56.3334 38.0003 56.3334Z" fill="#890C25"/>
</svg>
