<svg width="57" height="47" viewBox="0 0 57 47" fill="none" xmlns="http://www.w3.org/2000/svg">
<path d="M55.2222 12.9662L31.214 0.38181C30.7368 0.13103 30.2057 0 29.6665 0C29.1273 0 28.5962 0.13103 28.1189 0.38181L4.11092 12.9662C3.5688 13.2477 3.11475 13.6731 2.79863 14.1958C2.48251 14.7185 2.31654 15.3181 2.31897 15.929V29.6944C1.84809 29.8892 1.43987 30.2098 1.139 30.6211C0.838122 31.0324 0.656183 31.5185 0.613093 32.0262C0.570003 32.534 0.667422 33.0438 0.89469 33.4999C1.12196 33.956 1.47031 34.3408 1.90163 34.6121L0.170548 39.7945C0.00391087 40.2954 -0.0414615 40.8287 0.0381623 41.3505C0.117786 41.8723 0.320132 42.3678 0.628562 42.7962C0.936992 43.2246 1.3427 43.5736 1.81232 43.8147C2.28195 44.0557 2.80208 44.1818 3.32994 44.1827C3.85781 44.1835 4.37835 44.0591 4.84874 43.8195C5.31914 43.58 5.72597 43.2323 6.03577 42.8049C6.34558 42.3775 6.54951 41.8826 6.63081 41.3611C6.71212 40.8395 6.66846 40.3061 6.50343 39.8047L4.78281 34.6121C5.21248 34.339 5.55896 33.9532 5.78449 33.4967C6.01002 33.0403 6.10595 32.5307 6.06184 32.0235C6.01773 31.5162 5.83527 31.0308 5.53433 30.6202C5.23339 30.2095 4.82551 29.8893 4.35514 29.6944L4.35527 19.014C9.02944 21.4585 23.2206 28.9077 28.1189 31.4762C28.597 31.7245 29.1278 31.8541 29.6665 31.8541C30.2052 31.8541 30.736 31.7245 31.214 31.4762C36.2969 28.8043 50.3067 21.4683 55.2222 18.8816C55.7565 18.5943 56.2031 18.1676 56.5144 17.6468C56.8256 17.126 56.99 16.5306 56.99 15.9239C56.99 15.3172 56.8256 14.7218 56.5144 14.201C56.2031 13.6802 55.7565 13.2535 55.2222 12.9662Z" fill="#890C25"/>
<path d="M47.4542 24.5031L29.7708 33.7075C29.58 33.791 29.4526 33.791 29.2618 33.7075L11.5784 24.5031C11.1329 24.2521 10.6879 24.6706 10.6879 25.3401V35.8828C10.6879 36.2173 10.8152 36.5523 11.0695 36.7198L29.2618 46.7606C29.4526 46.844 29.6434 46.844 29.7707 46.7606L47.963 36.7198C48.2173 36.5523 48.3446 36.3013 48.3446 35.8828V25.3401C48.4081 24.754 47.8992 24.3361 47.4542 24.5031Z" fill="#890C25"/>
</svg>
