<svg width="31" height="31" viewBox="0 0 31 31" fill="none" xmlns="http://www.w3.org/2000/svg">
<mask id="mask0_80_9491" style="mask-type:luminance" maskUnits="userSpaceOnUse" x="0" y="0" width="31" height="31">
<path d="M30.4004 30.4004V0.599609H0.599609V30.4004H30.4004Z" fill="white" stroke="white" stroke-width="1.2"/>
</mask>
<g mask="url(#mask0_80_9491)">
<path d="M17.967 13.6856C17.967 13.6856 17.2015 12.9681 16.01 13.3166C14.9158 13.6365 14.6328 15.1277 15.3698 15.7155C15.793 16.053 16.4316 16.3327 17.2927 16.645C19.2201 17.3438 18.4836 20.064 16.5174 20.0613C15.75 20.0602 15.3917 20.0086 14.7212 19.5622" stroke="#890C25" stroke-width="1.2" stroke-miterlimit="10" stroke-linecap="round" stroke-linejoin="round"/>
<path d="M19.6265 25.6522H10.9893" stroke="#890C25" stroke-width="1.2" stroke-miterlimit="10" stroke-linecap="round" stroke-linejoin="round"/>
<path d="M4.38867 27.772L9.71444 29.7543C10.2908 29.9688 10.9008 30.0787 11.5158 30.0787H18.5092C19.4879 30.0787 20.4464 29.8005 21.273 29.2767L30.0294 24.3233C30.6071 23.8103 30.7143 22.9482 30.2796 22.3095C29.8041 21.6106 29.0174 21.4891 28.1518 21.8985L19.6266 25.6522L19.6366 24.2691C19.5237 23.1338 18.6496 22.2226 17.52 22.0628L12.3283 21.465C11.1307 21.2956 10.5323 20.8943 9.48829 20.2835C8.0629 19.4497 6.44127 19.0103 4.78992 19.0103H4.38867" stroke="#890C25" stroke-width="1.2" stroke-miterlimit="10" stroke-linecap="round" stroke-linejoin="round"/>
<path d="M4.38862 28.5801C4.38862 29.0724 3.98949 29.4716 3.49713 29.4716H1.34553C0.853166 29.4716 0.454102 29.0724 0.454102 28.5801V18.2592C0.454102 17.7669 0.853166 17.3678 1.34553 17.3678H3.49713C3.98949 17.3678 4.38862 17.7669 4.38862 18.2592V28.5801Z" stroke="#890C25" stroke-width="1.2" stroke-miterlimit="10" stroke-linecap="round" stroke-linejoin="round"/>
<path d="M23.4851 19.4958C23.8332 18.6447 24.0284 17.7143 24.0362 16.7386C24.0652 13.1412 21.539 10.119 18.1533 9.395" stroke="#890C25" stroke-width="1.2" stroke-miterlimit="10" stroke-linecap="round" stroke-linejoin="round"/>
<path d="M19.4551 23.5546C20.6173 23.0693 21.6311 22.2976 22.4074 21.3272" stroke="#890C25" stroke-width="1.2" stroke-miterlimit="10" stroke-linecap="round" stroke-linejoin="round"/>
<path d="M9.77115 13.6716C9.37269 14.5735 9.14788 15.5698 9.13941 16.6185C9.12693 18.1654 9.58703 19.6058 10.3846 20.803" stroke="#890C25" stroke-width="1.2" stroke-miterlimit="10" stroke-linecap="round" stroke-linejoin="round"/>
<path d="M15.0238 9.39502C13.3772 9.74691 11.9306 10.6435 10.8838 11.8884" stroke="#890C25" stroke-width="1.2" stroke-miterlimit="10" stroke-linecap="round" stroke-linejoin="round"/>
<path d="M10.4961 9.23631C8.36408 10.9834 6.99451 13.6292 6.97053 16.601C6.96278 17.563 7.0972 18.4929 7.35301 19.3715" stroke="#890C25" stroke-width="1.2" stroke-miterlimit="10" stroke-linecap="round" stroke-linejoin="round"/>
<path d="M22.0913 24.567C24.5569 22.8438 26.1793 19.9932 26.2053 16.7561C26.2297 13.7292 24.8527 11.0182 22.681 9.23761" stroke="#890C25" stroke-width="1.2" stroke-miterlimit="10" stroke-linecap="round" stroke-linejoin="round"/>
<path d="M22.5139 9.39502H10.6634C10.5704 9.39502 10.4951 9.3197 10.4951 9.22676V6.64298C10.4951 6.19603 10.7762 5.79732 11.1972 5.64717L12.1179 5.31882C13.5492 4.80829 15.0558 4.52838 16.5755 4.52699C16.6633 4.52693 16.7511 4.52766 16.8389 4.52923C18.2755 4.55502 19.6965 4.8333 21.05 5.31573L21.9798 5.64723C22.4009 5.79732 22.6821 6.19609 22.6821 6.6431V9.22676C22.6821 9.3197 22.6067 9.39502 22.5139 9.39502Z" stroke="#890C25" stroke-width="1.2" stroke-miterlimit="10" stroke-linecap="round" stroke-linejoin="round"/>
<path d="M22.6807 6.6074L25.9949 5.29704C26.3049 5.17443 26.3049 4.73559 25.9949 4.61304L16.7231 0.94717C16.6362 0.91278 16.5395 0.91278 16.4526 0.94717L7.18079 4.61304C6.87073 4.73559 6.87073 5.17443 7.18079 5.29704L10.4965 6.60794" stroke="#890C25" stroke-width="1.2" stroke-miterlimit="10" stroke-linecap="round" stroke-linejoin="round"/>
<path d="M26.8336 9.2782H25.6207C25.3759 9.2782 25.1916 9.05539 25.2375 8.81489L25.5118 7.37781C25.5468 7.19387 25.7077 7.06079 25.895 7.06079H26.5594C26.7466 7.06079 26.9075 7.19387 26.9426 7.37781L27.2169 8.81489C27.2628 9.05539 27.0784 9.2782 26.8336 9.2782Z" stroke="#890C25" stroke-width="1.2" stroke-miterlimit="10" stroke-linecap="round" stroke-linejoin="round"/>
</g>
</svg>
