<svg width="162" height="50" viewBox="0 0 162 50" fill="none" xmlns="http://www.w3.org/2000/svg">
<path d="M1.58026 21V2.81818H5.42436V10.32H13.228V2.81818H17.0632V21H13.228V13.4893H5.42436V21H1.58026ZM23.5174 2.81818L27.9119 16.6321H28.0806L32.484 2.81818H36.7454L30.4776 21H25.5238L19.2472 2.81818H23.5174ZM38.9338 21V2.81818H51.1852V5.98757H42.7779V10.32H50.5549V13.4893H42.7779V17.8306H51.2207V21H38.9338ZM59.1952 21.2219C58.1595 21.2219 57.2214 20.9556 56.3809 20.4229C55.5464 19.8844 54.8836 19.0942 54.3923 18.0526C53.907 17.005 53.6643 15.7206 53.6643 14.1996C53.6643 12.6371 53.9159 11.3379 54.4189 10.3022C54.922 9.26053 55.5908 8.48224 56.4253 7.96733C57.2658 7.4465 58.1861 7.18608 59.1863 7.18608C59.9498 7.18608 60.5861 7.31629 61.0951 7.5767C61.61 7.8312 62.0243 8.1508 62.338 8.53551C62.6576 8.9143 62.9002 9.28717 63.066 9.65412H63.1814V2.81818H66.9545V21H63.2258V18.8161H63.066C62.8884 19.1948 62.6369 19.5707 62.3113 19.9435C61.9917 20.3105 61.5745 20.6153 61.0596 20.858C60.5506 21.1006 59.9291 21.2219 59.1952 21.2219ZM60.3937 18.2124C61.0033 18.2124 61.5183 18.0466 61.9385 17.7152C62.3646 17.3778 62.6901 16.9073 62.915 16.3036C63.1459 15.6999 63.2613 14.9927 63.2613 14.1818C63.2613 13.371 63.1488 12.6667 62.9239 12.0689C62.699 11.4711 62.3735 11.0095 61.9474 10.6839C61.5212 10.3584 61.0033 10.1957 60.3937 10.1957C59.7723 10.1957 59.2485 10.3643 58.8224 10.7017C58.3962 11.0391 58.0737 11.5066 57.8547 12.1044C57.6357 12.7022 57.5262 13.3946 57.5262 14.1818C57.5262 14.9749 57.6357 15.6763 57.8547 16.2859C58.0796 16.8896 58.4021 17.363 58.8224 17.7063C59.2485 18.0437 59.7723 18.2124 60.3937 18.2124ZM78.8086 15.1939V7.36364H82.5906V21H78.9595V18.5231H78.8175C78.5097 19.3221 77.9978 19.9643 77.2816 20.4496C76.5714 20.9349 75.7043 21.1776 74.6804 21.1776C73.7689 21.1776 72.967 20.9704 72.2745 20.5561C71.582 20.1418 71.0405 19.5529 70.6499 18.7894C70.2652 18.0259 70.0698 17.1115 70.0639 16.0462V7.36364H73.8459V15.3714C73.8518 16.1764 74.0678 16.8126 74.494 17.2802C74.9201 17.7478 75.4912 17.9815 76.2074 17.9815C76.6631 17.9815 77.0893 17.878 77.4858 17.6708C77.8823 17.4577 78.2019 17.1441 78.4446 16.7298C78.6932 16.3155 78.8145 15.8035 78.8086 15.1939ZM91.7769 21.2663C90.3801 21.2663 89.1787 20.9704 88.1725 20.3786C87.1723 19.7808 86.4028 18.9522 85.8643 17.8928C85.3316 16.8333 85.0653 15.6141 85.0653 14.2351C85.0653 12.8383 85.3345 11.6132 85.8731 10.5597C86.4176 9.50024 87.19 8.6746 88.1903 8.08274C89.1905 7.48497 90.3801 7.18608 91.7591 7.18608C92.9488 7.18608 93.9904 7.40211 94.8841 7.83416C95.7778 8.26622 96.4851 8.87287 97.0059 9.65412C97.5268 10.4354 97.8138 11.3527 97.8671 12.4062H94.2982C94.1976 11.7256 93.9313 11.1781 93.4992 10.7638C93.0731 10.3436 92.5138 10.1335 91.8213 10.1335C91.2354 10.1335 90.7234 10.2933 90.2854 10.6129C89.8534 10.9266 89.516 11.3853 89.2733 11.989C89.0307 12.5927 88.9094 13.3236 88.9094 14.1818C88.9094 15.0518 89.0277 15.7917 89.2645 16.4013C89.5071 17.0109 89.8474 17.4755 90.2854 17.7951C90.7234 18.1147 91.2354 18.2745 91.8213 18.2745C92.2533 18.2745 92.641 18.1857 92.9843 18.0082C93.3335 17.8306 93.6205 17.5732 93.8454 17.2358C94.0763 16.8925 94.2272 16.4812 94.2982 16.0018H97.8671C97.8079 17.0434 97.5238 17.9608 97.0148 18.7539C96.5117 19.5411 95.8163 20.1566 94.9285 20.6005C94.0407 21.0444 92.9902 21.2663 91.7769 21.2663ZM104.177 21.2575C103.307 21.2575 102.532 21.1065 101.851 20.8047C101.17 20.4969 100.632 20.0442 100.235 19.4464C99.8446 18.8427 99.6493 18.091 99.6493 17.1914C99.6493 16.4338 99.7884 15.7976 100.067 15.2827C100.345 14.7678 100.724 14.3535 101.203 14.0398C101.682 13.7261 102.227 13.4893 102.836 13.3295C103.452 13.1697 104.097 13.0573 104.772 12.9922C105.565 12.9093 106.204 12.8324 106.689 12.7614C107.175 12.6844 107.527 12.572 107.746 12.424C107.965 12.276 108.074 12.0571 108.074 11.767V11.7138C108.074 11.1515 107.897 10.7165 107.542 10.4087C107.193 10.101 106.695 9.94709 106.05 9.94709C105.37 9.94709 104.828 10.098 104.426 10.3999C104.023 10.6958 103.757 11.0687 103.627 11.5185L100.129 11.2344C100.306 10.4058 100.655 9.68963 101.176 9.08594C101.697 8.47633 102.369 8.00876 103.192 7.68324C104.02 7.3518 104.979 7.18608 106.068 7.18608C106.826 7.18608 107.551 7.27486 108.243 7.45241C108.941 7.62997 109.56 7.90518 110.099 8.27805C110.643 8.65092 111.072 9.13033 111.386 9.71626C111.7 10.2963 111.856 10.9917 111.856 11.8026V21H108.27V19.109H108.163C107.944 19.5352 107.651 19.911 107.284 20.2365C106.917 20.5561 106.476 20.8076 105.961 20.9911C105.447 21.1687 104.852 21.2575 104.177 21.2575ZM105.26 18.6474C105.816 18.6474 106.308 18.5379 106.734 18.3189C107.16 18.094 107.494 17.7921 107.737 17.4134C107.98 17.0346 108.101 16.6055 108.101 16.1261V14.679C107.983 14.7559 107.82 14.8269 107.613 14.892C107.412 14.9512 107.184 15.0075 106.929 15.0607C106.675 15.1081 106.42 15.1525 106.166 15.1939C105.911 15.2294 105.68 15.262 105.473 15.2915C105.029 15.3567 104.642 15.4602 104.31 15.6023C103.979 15.7443 103.721 15.9367 103.538 16.1793C103.354 16.4161 103.263 16.712 103.263 17.0671C103.263 17.582 103.449 17.9756 103.822 18.2479C104.201 18.5142 104.68 18.6474 105.26 18.6474ZM122.044 7.36364V10.2045H113.832V7.36364H122.044ZM115.696 4.09659H119.478V16.8097C119.478 17.1589 119.531 17.4311 119.638 17.6264C119.744 17.8158 119.892 17.949 120.082 18.0259C120.277 18.1029 120.502 18.1413 120.756 18.1413C120.934 18.1413 121.112 18.1265 121.289 18.0969C121.467 18.0614 121.603 18.0348 121.697 18.017L122.292 20.8313C122.103 20.8905 121.837 20.9586 121.493 21.0355C121.15 21.1184 120.733 21.1687 120.241 21.1864C119.33 21.2219 118.531 21.1006 117.844 20.8224C117.164 20.5443 116.634 20.1122 116.255 19.5263C115.877 18.9403 115.69 18.2005 115.696 17.3068V4.09659ZM124.507 21V7.36364H128.289V21H124.507ZM126.407 5.60582C125.845 5.60582 125.363 5.41939 124.96 5.04652C124.564 4.66773 124.365 4.21496 124.365 3.68821C124.365 3.16738 124.564 2.72053 124.96 2.34766C125.363 1.96887 125.845 1.77947 126.407 1.77947C126.969 1.77947 127.449 1.96887 127.845 2.34766C128.248 2.72053 128.449 3.16738 128.449 3.68821C128.449 4.21496 128.248 4.66773 127.845 5.04652C127.449 5.41939 126.969 5.60582 126.407 5.60582ZM137.48 21.2663C136.101 21.2663 134.908 20.9734 133.902 20.3874C132.902 19.7956 132.13 18.9729 131.585 17.9194C131.041 16.86 130.768 15.6319 130.768 14.2351C130.768 12.8265 131.041 11.5954 131.585 10.5419C132.13 9.48248 132.902 8.6598 133.902 8.07386C134.908 7.48201 136.101 7.18608 137.48 7.18608C138.859 7.18608 140.049 7.48201 141.049 8.07386C142.055 8.6598 142.83 9.48248 143.375 10.5419C143.919 11.5954 144.192 12.8265 144.192 14.2351C144.192 15.6319 143.919 16.86 143.375 17.9194C142.83 18.9729 142.055 19.7956 141.049 20.3874C140.049 20.9734 138.859 21.2663 137.48 21.2663ZM137.498 18.3366C138.125 18.3366 138.649 18.1591 139.069 17.804C139.489 17.4429 139.806 16.9517 140.019 16.3303C140.238 15.7088 140.348 15.0015 140.348 14.2085C140.348 13.4154 140.238 12.7081 140.019 12.0866C139.806 11.4652 139.489 10.974 139.069 10.6129C138.649 10.2519 138.125 10.0714 137.498 10.0714C136.864 10.0714 136.332 10.2519 135.9 10.6129C135.474 10.974 135.151 11.4652 134.932 12.0866C134.719 12.7081 134.612 13.4154 134.612 14.2085C134.612 15.0015 134.719 15.7088 134.932 16.3303C135.151 16.9517 135.474 17.4429 135.9 17.804C136.332 18.1591 136.864 18.3366 137.498 18.3366ZM150.433 13.1165V21H146.651V7.36364H150.255V9.76953H150.415C150.717 8.97644 151.223 8.34908 151.933 7.88743C152.643 7.41986 153.505 7.18608 154.517 7.18608C155.464 7.18608 156.289 7.39323 156.994 7.80753C157.698 8.22183 158.245 8.81368 158.636 9.5831C159.027 10.3466 159.222 11.258 159.222 12.3175V21H155.44V12.9922C155.446 12.1577 155.233 11.5066 154.801 11.0391C154.369 10.5656 153.774 10.3288 153.016 10.3288C152.507 10.3288 152.057 10.4383 151.667 10.6573C151.282 10.8763 150.98 11.1959 150.761 11.6161C150.548 12.0304 150.439 12.5305 150.433 13.1165Z" fill="#890C25"/>
<path d="M9.82386 38.9091C9.82386 39.983 9.62997 40.911 9.24219 41.6932C8.8544 42.4754 8.32244 43.0786 7.64631 43.5028C6.97017 43.9271 6.19792 44.1392 5.32955 44.1392C4.46117 44.1392 3.68892 43.9271 3.01278 43.5028C2.33665 43.0786 1.80469 42.4754 1.4169 41.6932C1.02912 40.911 0.835227 39.983 0.835227 38.9091C0.835227 37.8352 1.02912 36.9072 1.4169 36.125C1.80469 35.3428 2.33665 34.7396 3.01278 34.3153C3.68892 33.8911 4.46117 33.679 5.32955 33.679C6.19792 33.679 6.97017 33.8911 7.64631 34.3153C8.32244 34.7396 8.8544 35.3428 9.24219 36.125C9.62997 36.9072 9.82386 37.8352 9.82386 38.9091ZM8.63068 38.9091C8.63068 38.0275 8.48319 37.2834 8.18821 36.6768C7.89654 36.0703 7.50047 35.6113 7 35.2997C6.50284 34.9882 5.94602 34.8324 5.32955 34.8324C4.71307 34.8324 4.15459 34.9882 3.65412 35.2997C3.15696 35.6113 2.76089 36.0703 2.46591 36.6768C2.17424 37.2834 2.02841 38.0275 2.02841 38.9091C2.02841 39.7907 2.17424 40.5348 2.46591 41.1413C2.76089 41.7479 3.15696 42.2069 3.65412 42.5185C4.15459 42.83 4.71307 42.9858 5.32955 42.9858C5.94602 42.9858 6.50284 42.83 7 42.5185C7.50047 42.2069 7.89654 41.7479 8.18821 41.1413C8.48319 40.5348 8.63068 39.7907 8.63068 38.9091ZM12.9112 39.4062V44H11.7379V36.3636H12.8714V37.5568H12.9709C13.1499 37.169 13.4216 36.8575 13.7862 36.6222C14.1508 36.3835 14.6214 36.2642 15.1982 36.2642C15.7152 36.2642 16.1676 36.3703 16.5554 36.5824C16.9432 36.7912 17.2448 37.1094 17.4602 37.5369C17.6757 37.9612 17.7834 38.4981 17.7834 39.1477V44H16.6101V39.2273C16.6101 38.6274 16.4543 38.16 16.1428 37.8253C15.8312 37.4872 15.4036 37.3182 14.8601 37.3182C14.4856 37.3182 14.1508 37.3994 13.8558 37.5618C13.5642 37.7242 13.3338 37.9612 13.1648 38.2727C12.9957 38.5843 12.9112 38.9621 12.9112 39.4062ZM21.1007 33.8182V44H19.9274V33.8182H21.1007ZM23.2496 44V36.3636H24.4229V44H23.2496ZM23.8462 35.0909C23.6175 35.0909 23.4203 35.013 23.2546 34.8572C23.0922 34.7015 23.011 34.5142 23.011 34.2955C23.011 34.0767 23.0922 33.8894 23.2546 33.7337C23.4203 33.5779 23.6175 33.5 23.8462 33.5C24.0749 33.5 24.2705 33.5779 24.4329 33.7337C24.5986 33.8894 24.6815 34.0767 24.6815 34.2955C24.6815 34.5142 24.5986 34.7015 24.4329 34.8572C24.2705 35.013 24.0749 35.0909 23.8462 35.0909ZM27.7452 39.4062V44H26.5719V36.3636H27.7054V37.5568H27.8049C27.9838 37.169 28.2556 36.8575 28.6202 36.6222C28.9848 36.3835 29.4554 36.2642 30.0321 36.2642C30.5492 36.2642 31.0016 36.3703 31.3894 36.5824C31.7772 36.7912 32.0788 37.1094 32.2942 37.5369C32.5096 37.9612 32.6174 38.4981 32.6174 39.1477V44H31.4441V39.2273C31.4441 38.6274 31.2883 38.16 30.9767 37.8253C30.6652 37.4872 30.2376 37.3182 29.6941 37.3182C29.3195 37.3182 28.9848 37.3994 28.6898 37.5618C28.3981 37.7242 28.1678 37.9612 27.9988 38.2727C27.8297 38.5843 27.7452 38.9621 27.7452 39.4062ZM37.9631 44.1591C37.2273 44.1591 36.5926 43.9967 36.0589 43.6719C35.5286 43.3438 35.1193 42.8864 34.831 42.2997C34.5459 41.7098 34.4034 41.0237 34.4034 40.2415C34.4034 39.4593 34.5459 38.7699 34.831 38.1733C35.1193 37.5734 35.5204 37.1061 36.0341 36.7713C36.5511 36.4332 37.1544 36.2642 37.8438 36.2642C38.2415 36.2642 38.6342 36.3305 39.022 36.4631C39.4098 36.5956 39.7628 36.8111 40.081 37.1094C40.3991 37.4044 40.6527 37.7955 40.8416 38.2827C41.0305 38.7699 41.125 39.3698 41.125 40.0824V40.5795H35.2386V39.5653H39.9318C39.9318 39.1345 39.8456 38.75 39.6733 38.4119C39.5043 38.0739 39.2623 37.8071 38.9474 37.6115C38.6359 37.416 38.268 37.3182 37.8438 37.3182C37.3764 37.3182 36.9721 37.4342 36.6307 37.6662C36.2926 37.8949 36.0324 38.1932 35.8501 38.5611C35.6679 38.929 35.5767 39.3234 35.5767 39.7443V40.4205C35.5767 40.9972 35.6761 41.486 35.875 41.8871C36.0772 42.2848 36.3572 42.5881 36.7152 42.7969C37.0732 43.0024 37.4891 43.1051 37.9631 43.1051C38.2713 43.1051 38.5497 43.062 38.7983 42.9759C39.0502 42.8864 39.2673 42.7538 39.4496 42.5781C39.6319 42.3991 39.7727 42.1771 39.8722 41.9119L41.0057 42.2301C40.8864 42.6146 40.6858 42.9527 40.4041 43.2443C40.1224 43.5327 39.7744 43.758 39.3601 43.9205C38.9458 44.0795 38.4801 44.1591 37.9631 44.1591ZM48.0206 33.8182V44H46.8473V33.8182H48.0206ZM53.3713 44.1591C52.6355 44.1591 52.0008 43.9967 51.4672 43.6719C50.9368 43.3438 50.5275 42.8864 50.2392 42.2997C49.9541 41.7098 49.8116 41.0237 49.8116 40.2415C49.8116 39.4593 49.9541 38.7699 50.2392 38.1733C50.5275 37.5734 50.9286 37.1061 51.4423 36.7713C51.9593 36.4332 52.5626 36.2642 53.252 36.2642C53.6497 36.2642 54.0424 36.3305 54.4302 36.4631C54.818 36.5956 55.171 36.8111 55.4892 37.1094C55.8074 37.4044 56.0609 37.7955 56.2498 38.2827C56.4387 38.7699 56.5332 39.3698 56.5332 40.0824V40.5795H50.6468V39.5653H55.34C55.34 39.1345 55.2538 38.75 55.0815 38.4119C54.9125 38.0739 54.6705 37.8071 54.3556 37.6115C54.0441 37.416 53.6762 37.3182 53.252 37.3182C52.7846 37.3182 52.3803 37.4342 52.0389 37.6662C51.7008 37.8949 51.4406 38.1932 51.2583 38.5611C51.0761 38.929 50.9849 39.3234 50.9849 39.7443V40.4205C50.9849 40.9972 51.0843 41.486 51.2832 41.8871C51.4854 42.2848 51.7654 42.5881 52.1234 42.7969C52.4814 43.0024 52.8973 43.1051 53.3713 43.1051C53.6795 43.1051 53.9579 43.062 54.2065 42.9759C54.4584 42.8864 54.6755 42.7538 54.8578 42.5781C55.0401 42.3991 55.1809 42.1771 55.2804 41.9119L56.4139 42.2301C56.2946 42.6146 56.094 42.9527 55.8123 43.2443C55.5306 43.5327 55.1826 43.758 54.7683 43.9205C54.354 44.0795 53.8883 44.1591 53.3713 44.1591ZM60.5652 44.179C60.0813 44.179 59.6421 44.0878 59.2477 43.9055C58.8533 43.7199 58.5401 43.4531 58.3081 43.1051C58.0761 42.7538 57.96 42.3295 57.96 41.8324C57.96 41.3949 58.0462 41.0402 58.2186 40.7685C58.3909 40.4934 58.6213 40.2779 58.9096 40.1222C59.198 39.9664 59.5162 39.8504 59.8642 39.7741C60.2155 39.6946 60.5685 39.6316 60.9231 39.5852C61.3871 39.5256 61.7633 39.4808 62.0517 39.451C62.3433 39.4179 62.5555 39.3632 62.688 39.2869C62.8239 39.2107 62.8919 39.0781 62.8919 38.8892V38.8494C62.8919 38.3589 62.7576 37.9777 62.4892 37.706C62.224 37.4342 61.8213 37.2983 61.2811 37.2983C60.7209 37.2983 60.2818 37.4209 59.9636 37.6662C59.6454 37.9115 59.4217 38.1733 59.2924 38.4517L58.1788 38.054C58.3777 37.59 58.6428 37.2287 58.9743 36.9702C59.309 36.7083 59.6736 36.526 60.068 36.4233C60.4657 36.3172 60.8568 36.2642 61.2413 36.2642C61.4866 36.2642 61.7683 36.294 62.0865 36.3537C62.408 36.41 62.7179 36.5277 63.0162 36.7067C63.3178 36.8857 63.568 37.1558 63.7669 37.517C63.9657 37.8783 64.0652 38.3622 64.0652 38.9688V44H62.8919V42.9659H62.8322C62.7527 43.1316 62.6201 43.3089 62.4345 43.4979C62.2489 43.6868 62.002 43.8475 61.6937 43.9801C61.3855 44.1127 61.0093 44.179 60.5652 44.179ZM60.7441 43.125C61.2082 43.125 61.5993 43.0339 61.9174 42.8516C62.2389 42.6693 62.4809 42.4339 62.6433 42.1456C62.809 41.8572 62.8919 41.554 62.8919 41.2358V40.1619C62.8422 40.2216 62.7328 40.2763 62.5637 40.326C62.398 40.3724 62.2058 40.4138 61.987 40.4503C61.7716 40.4834 61.5611 40.5133 61.3556 40.5398C61.1535 40.563 60.9894 40.5829 60.8635 40.5994C60.5585 40.6392 60.2735 40.7038 60.0083 40.7933C59.7465 40.8795 59.5344 41.0104 59.372 41.1861C59.2129 41.3584 59.1333 41.5937 59.1333 41.892C59.1333 42.2997 59.2842 42.608 59.5858 42.8168C59.8907 43.0223 60.2768 43.125 60.7441 43.125ZM66.2067 44V36.3636H67.3402V37.517H67.4197C67.5589 37.1392 67.8108 36.8326 68.1754 36.5973C68.54 36.362 68.951 36.2443 69.4084 36.2443C69.4946 36.2443 69.6023 36.246 69.7315 36.2493C69.8608 36.2526 69.9586 36.2576 70.0249 36.2642V37.4574C69.9851 37.4474 69.8939 37.4325 69.7514 37.4126C69.6122 37.3894 69.4647 37.3778 69.3089 37.3778C68.9377 37.3778 68.6063 37.4557 68.3146 37.6115C68.0263 37.764 67.7976 37.9761 67.6286 38.2479C67.4628 38.5163 67.38 38.8229 67.38 39.1676V44H66.2067ZM72.589 39.4062V44H71.4157V36.3636H72.5492V37.5568H72.6486C72.8276 37.169 73.0994 36.8575 73.464 36.6222C73.8285 36.3835 74.2992 36.2642 74.8759 36.2642C75.3929 36.2642 75.8453 36.3703 76.2331 36.5824C76.6209 36.7912 76.9225 37.1094 77.138 37.5369C77.3534 37.9612 77.4611 38.4981 77.4611 39.1477V44H76.2878V39.2273C76.2878 38.6274 76.132 38.16 75.8205 37.8253C75.5089 37.4872 75.0814 37.3182 74.5378 37.3182C74.1633 37.3182 73.8285 37.3994 73.5336 37.5618C73.2419 37.7242 73.0115 37.9612 72.8425 38.2727C72.6735 38.5843 72.589 38.9621 72.589 39.4062ZM79.6051 44V36.3636H80.7784V44H79.6051ZM80.2017 35.0909C79.973 35.0909 79.7758 35.013 79.6101 34.8572C79.4477 34.7015 79.3665 34.5142 79.3665 34.2955C79.3665 34.0767 79.4477 33.8894 79.6101 33.7337C79.7758 33.5779 79.973 33.5 80.2017 33.5C80.4304 33.5 80.6259 33.5779 80.7884 33.7337C80.9541 33.8894 81.0369 34.0767 81.0369 34.2955C81.0369 34.5142 80.9541 34.7015 80.7884 34.8572C80.6259 35.013 80.4304 35.0909 80.2017 35.0909ZM84.1007 39.4062V44H82.9274V36.3636H84.0609V37.5568H84.1603C84.3393 37.169 84.6111 36.8575 84.9757 36.6222C85.3403 36.3835 85.8109 36.2642 86.3876 36.2642C86.9047 36.2642 87.3571 36.3703 87.7449 36.5824C88.1326 36.7912 88.4342 37.1094 88.6497 37.5369C88.8651 37.9612 88.9728 38.4981 88.9728 39.1477V44H87.7995V39.2273C87.7995 38.6274 87.6438 38.16 87.3322 37.8253C87.0207 37.4872 86.5931 37.3182 86.0495 37.3182C85.675 37.3182 85.3403 37.3994 85.0453 37.5618C84.7536 37.7242 84.5233 37.9612 84.3542 38.2727C84.1852 38.5843 84.1007 38.9621 84.1007 39.4062ZM94.1992 47.0227C93.6325 47.0227 93.1452 46.9498 92.7376 46.804C92.3299 46.6615 91.9902 46.4725 91.7184 46.2372C91.4499 46.0052 91.2362 45.7566 91.0771 45.4915L92.0117 44.8352C92.1178 44.9744 92.252 45.1335 92.4144 45.3125C92.5768 45.4948 92.7989 45.6522 93.0806 45.7848C93.3656 45.9207 93.7385 45.9886 94.1992 45.9886C94.8157 45.9886 95.3245 45.8395 95.7255 45.5412C96.1265 45.2429 96.3271 44.7756 96.3271 44.1392V42.5881H96.2276C96.1415 42.7273 96.0188 42.8996 95.8597 43.1051C95.704 43.3073 95.4786 43.4879 95.1836 43.647C94.8919 43.8028 94.4975 43.8807 94.0004 43.8807C93.3839 43.8807 92.8304 43.7348 92.3398 43.4432C91.8526 43.1515 91.4665 42.7273 91.1815 42.1705C90.8997 41.6136 90.7589 40.9375 90.7589 40.142C90.7589 39.3598 90.8964 38.6787 91.1715 38.0987C91.4466 37.5154 91.8294 37.0646 92.32 36.7464C92.8105 36.425 93.3772 36.2642 94.0202 36.2642C94.5174 36.2642 94.9118 36.3471 95.2035 36.5128C95.4985 36.6752 95.7238 36.8608 95.8796 37.0696C96.0387 37.2751 96.1613 37.4441 96.2475 37.5767H96.3668V36.3636H97.5004V44.2188C97.5004 44.875 97.3512 45.4086 97.0529 45.8196C96.7579 46.2339 96.3602 46.5372 95.8597 46.7294C95.3626 46.925 94.8091 47.0227 94.1992 47.0227ZM94.1594 42.8267C94.6301 42.8267 95.0278 42.719 95.3526 42.5036C95.6774 42.2881 95.9244 41.9782 96.0934 41.5739C96.2624 41.1695 96.3469 40.6856 96.3469 40.1222C96.3469 39.572 96.2641 39.0864 96.0984 38.6655C95.9326 38.2446 95.6874 37.9148 95.3626 37.6761C95.0378 37.4375 94.6367 37.3182 94.1594 37.3182C93.6623 37.3182 93.248 37.4441 92.9165 37.696C92.5884 37.9479 92.3415 38.286 92.1758 38.7102C92.0134 39.1345 91.9322 39.6051 91.9322 40.1222C91.9322 40.6525 92.015 41.1214 92.1808 41.5291C92.3498 41.9335 92.5984 42.2517 92.9265 42.4837C93.2579 42.7124 93.6689 42.8267 94.1594 42.8267ZM108.995 38.0739L107.941 38.3722C107.874 38.1965 107.777 38.0258 107.647 37.8601C107.521 37.6911 107.349 37.5518 107.13 37.4425C106.912 37.3331 106.632 37.2784 106.29 37.2784C105.823 37.2784 105.433 37.3861 105.122 37.6016C104.814 37.8137 104.659 38.0838 104.659 38.4119C104.659 38.7036 104.766 38.9339 104.978 39.103C105.19 39.272 105.521 39.4129 105.972 39.5256L107.105 39.804C107.788 39.9697 108.297 40.2232 108.632 40.5646C108.967 40.9027 109.134 41.3385 109.134 41.8722C109.134 42.3097 109.008 42.7008 108.756 43.0455C108.507 43.3902 108.159 43.6619 107.712 43.8608C107.265 44.0597 106.744 44.1591 106.151 44.1591C105.372 44.1591 104.727 43.9901 104.217 43.652C103.707 43.3139 103.383 42.8201 103.248 42.1705L104.361 41.892C104.467 42.303 104.668 42.6113 104.963 42.8168C105.261 43.0223 105.65 43.125 106.131 43.125C106.678 43.125 107.112 43.009 107.434 42.777C107.758 42.5417 107.921 42.2599 107.921 41.9318C107.921 41.6667 107.828 41.4446 107.642 41.2656C107.457 41.0833 107.172 40.9474 106.787 40.858L105.515 40.5597C104.815 40.3939 104.301 40.1371 103.973 39.7891C103.649 39.4377 103.486 38.9986 103.486 38.4716C103.486 38.0407 103.607 37.6596 103.849 37.3281C104.094 36.9967 104.427 36.7365 104.848 36.5476C105.273 36.3587 105.753 36.2642 106.29 36.2642C107.046 36.2642 107.639 36.4299 108.07 36.7614C108.504 37.0928 108.812 37.5303 108.995 38.0739ZM114.002 44.1591C113.313 44.1591 112.708 43.995 112.188 43.6669C111.671 43.3388 111.266 42.8797 110.975 42.2898C110.686 41.6998 110.542 41.0104 110.542 40.2216C110.542 39.4261 110.686 38.7318 110.975 38.1385C111.266 37.5452 111.671 37.0845 112.188 36.7564C112.708 36.4283 113.313 36.2642 114.002 36.2642C114.692 36.2642 115.295 36.4283 115.812 36.7564C116.332 37.0845 116.737 37.5452 117.025 38.1385C117.317 38.7318 117.463 39.4261 117.463 40.2216C117.463 41.0104 117.317 41.6998 117.025 42.2898C116.737 42.8797 116.332 43.3388 115.812 43.6669C115.295 43.995 114.692 44.1591 114.002 44.1591ZM114.002 43.1051C114.526 43.1051 114.957 42.9709 115.295 42.7024C115.633 42.4339 115.883 42.081 116.046 41.6435C116.208 41.206 116.289 40.732 116.289 40.2216C116.289 39.7112 116.208 39.2356 116.046 38.7947C115.883 38.3539 115.633 37.9976 115.295 37.7259C114.957 37.4541 114.526 37.3182 114.002 37.3182C113.479 37.3182 113.048 37.4541 112.71 37.7259C112.372 37.9976 112.121 38.3539 111.959 38.7947C111.797 39.2356 111.715 39.7112 111.715 40.2216C111.715 40.732 111.797 41.206 111.959 41.6435C112.121 42.081 112.372 42.4339 112.71 42.7024C113.048 42.9709 113.479 43.1051 114.002 43.1051ZM120.427 33.8182V44H119.254V33.8182H120.427ZM127.388 40.8778V36.3636H128.562V44H127.388V42.7074H127.309C127.13 43.0952 126.851 43.425 126.474 43.6967C126.096 43.9652 125.618 44.0994 125.042 44.0994C124.564 44.0994 124.14 43.995 123.769 43.7862C123.398 43.5741 123.106 43.2559 122.894 42.8317C122.682 42.4041 122.576 41.8655 122.576 41.2159V36.3636H123.749V41.1364C123.749 41.6932 123.905 42.1373 124.216 42.4688C124.531 42.8002 124.932 42.9659 125.42 42.9659C125.711 42.9659 126.008 42.8913 126.309 42.7422C126.614 42.593 126.87 42.3643 127.075 42.0561C127.284 41.7479 127.388 41.3551 127.388 40.8778ZM134.032 36.3636V37.358H130.074V36.3636H134.032ZM131.228 34.5341H132.401V41.8125C132.401 42.1439 132.449 42.3925 132.545 42.5582C132.645 42.7206 132.77 42.83 132.923 42.8864C133.079 42.9394 133.243 42.9659 133.415 42.9659C133.544 42.9659 133.65 42.9593 133.733 42.946C133.816 42.9295 133.882 42.9162 133.932 42.9062L134.171 43.9602C134.091 43.9901 133.98 44.0199 133.838 44.0497C133.695 44.0829 133.515 44.0994 133.296 44.0994C132.964 44.0994 132.64 44.0282 132.321 43.8857C132.007 43.7431 131.745 43.526 131.536 43.2344C131.33 42.9427 131.228 42.5748 131.228 42.1307V34.5341ZM135.797 44V36.3636H136.97V44H135.797ZM136.393 35.0909C136.164 35.0909 135.967 35.013 135.801 34.8572C135.639 34.7015 135.558 34.5142 135.558 34.2955C135.558 34.0767 135.639 33.8894 135.801 33.7337C135.967 33.5779 136.164 33.5 136.393 33.5C136.622 33.5 136.817 33.5779 136.98 33.7337C137.145 33.8894 137.228 34.0767 137.228 34.2955C137.228 34.5142 137.145 34.7015 136.98 34.8572C136.817 35.013 136.622 35.0909 136.393 35.0909ZM142.221 44.1591C141.532 44.1591 140.927 43.995 140.406 43.6669C139.889 43.3388 139.485 42.8797 139.193 42.2898C138.905 41.6998 138.761 41.0104 138.761 40.2216C138.761 39.4261 138.905 38.7318 139.193 38.1385C139.485 37.5452 139.889 37.0845 140.406 36.7564C140.927 36.4283 141.532 36.2642 142.221 36.2642C142.91 36.2642 143.514 36.4283 144.031 36.7564C144.551 37.0845 144.955 37.5452 145.244 38.1385C145.535 38.7318 145.681 39.4261 145.681 40.2216C145.681 41.0104 145.535 41.6998 145.244 42.2898C144.955 42.8797 144.551 43.3388 144.031 43.6669C143.514 43.995 142.91 44.1591 142.221 44.1591ZM142.221 43.1051C142.745 43.1051 143.176 42.9709 143.514 42.7024C143.852 42.4339 144.102 42.081 144.264 41.6435C144.427 41.206 144.508 40.732 144.508 40.2216C144.508 39.7112 144.427 39.2356 144.264 38.7947C144.102 38.3539 143.852 37.9976 143.514 37.7259C143.176 37.4541 142.745 37.3182 142.221 37.3182C141.697 37.3182 141.267 37.4541 140.928 37.7259C140.59 37.9976 140.34 38.3539 140.178 38.7947C140.015 39.2356 139.934 39.7112 139.934 40.2216C139.934 40.732 140.015 41.206 140.178 41.6435C140.34 42.081 140.59 42.4339 140.928 42.7024C141.267 42.9709 141.697 43.1051 142.221 43.1051ZM148.646 39.4062V44H147.472V36.3636H148.606V37.5568H148.705C148.884 37.169 149.156 36.8575 149.521 36.6222C149.885 36.3835 150.356 36.2642 150.933 36.2642C151.45 36.2642 151.902 36.3703 152.29 36.5824C152.678 36.7912 152.979 37.1094 153.195 37.5369C153.41 37.9612 153.518 38.4981 153.518 39.1477V44H152.344V39.2273C152.344 38.6274 152.189 38.16 151.877 37.8253C151.566 37.4872 151.138 37.3182 150.594 37.3182C150.22 37.3182 149.885 37.3994 149.59 37.5618C149.299 37.7242 149.068 37.9612 148.899 38.2727C148.73 38.5843 148.646 38.9621 148.646 39.4062Z" fill="#890C25"/>
</svg>
