<svg width="31" height="31" viewBox="0 0 31 31" fill="none" xmlns="http://www.w3.org/2000/svg">
<path d="M30.3281 9.53257L29.0196 8.24328C28.7441 7.97202 28.3697 7.8352 27.9925 7.82671V4.67279C27.9925 3.60454 27.1105 2.73529 26.0261 2.73529H21.9776V0.569853C21.9776 0.255098 21.7187 0 21.3993 0H13.0709C12.7514 0 12.4925 0.255098 12.4925 0.569853V2.73529H8.44403C7.35961 2.73529 6.47761 3.60454 6.47761 4.67279V17.3293C2.8958 17.391 0 20.2763 0 23.8199C0 25.5428 0.679117 27.1666 1.91084 28.3916C3.15521 29.6326 4.81799 30.3162 6.59328 30.3162C6.81519 30.3162 7.03535 30.3055 7.25314 30.2844C8.41446 30.1718 9.50507 29.7565 10.4415 29.0882C10.6942 28.9079 10.9359 28.71 11.1639 28.4926H26.0261C27.1105 28.4926 27.9925 27.6234 27.9925 26.5551V13.9291L30.3281 11.6279C30.9146 11.0503 30.9146 10.1102 30.3281 9.53257ZM13.6493 1.1397H20.8209V2.73529H13.6493V1.1397ZM6.59328 18.4632C9.59081 18.4632 12.0299 20.8662 12.0299 23.8198C12.0299 24.9719 11.656 26.0671 10.9739 26.9807C10.3891 26.0801 9.54161 25.3913 8.55419 24.9962C9.12507 24.4753 9.48507 23.7333 9.48507 22.9081C9.48507 21.337 8.18783 20.0588 6.59328 20.0588C4.99873 20.0588 3.70149 21.337 3.70149 22.9081C3.70149 23.7333 4.0615 24.4753 4.63237 24.9962C3.64489 25.3913 2.79738 26.0802 2.21255 26.9808C1.5307 26.0675 1.15671 24.9721 1.15671 23.8198C1.15671 20.8662 3.59576 18.4632 6.59328 18.4632ZM4.85821 22.9081C4.85821 21.9654 5.63673 21.1985 6.59328 21.1985C7.54983 21.1985 8.32836 21.9654 8.32836 22.9081C8.32836 23.8508 7.54983 24.6176 6.59328 24.6176C5.63673 24.6176 4.85821 23.8508 4.85821 22.9081ZM6.07259 29.1514C6.01634 29.1462 5.9613 29.1361 5.90543 29.1293C5.79044 29.1151 5.67562 29.1004 5.56249 29.0791C5.49708 29.0669 5.43303 29.0503 5.36833 29.0357C5.26647 29.0127 5.16481 28.9892 5.06484 28.9606C4.99757 28.9413 4.9316 28.9187 4.86526 28.8968C4.77027 28.8656 4.67574 28.8331 4.58278 28.7967C4.51625 28.7706 4.4507 28.7422 4.38527 28.7135C4.29535 28.6741 4.20639 28.6326 4.11874 28.5883C4.0543 28.5558 3.9905 28.5219 3.92733 28.4867C3.84159 28.439 3.75746 28.3883 3.67426 28.3358C3.61346 28.2975 3.5528 28.2589 3.49347 28.218C3.41078 28.1611 3.3305 28.1004 3.25077 28.0387C3.19514 27.9956 3.13902 27.9534 3.08492 27.9081C3.06535 27.8917 3.04727 27.8732 3.0279 27.8565C3.73035 26.5697 5.09 25.7574 6.59327 25.7574C8.09655 25.7574 9.45612 26.5697 10.1586 27.8564C10.139 27.8734 10.1206 27.8921 10.1008 27.9087C10.0469 27.9538 9.9911 27.9958 9.93575 28.0387C9.85603 28.1004 9.77563 28.1612 9.69294 28.2181C9.63344 28.2591 9.57264 28.2978 9.5117 28.3362C9.42878 28.3886 9.34488 28.4391 9.25943 28.4867C9.19606 28.522 9.13201 28.5559 9.06728 28.5886C8.98002 28.6327 8.89143 28.674 8.80191 28.7133C8.73608 28.7421 8.67017 28.7707 8.60321 28.7969C8.51058 28.8332 8.41643 28.8655 8.3218 28.8967C8.25524 28.9186 8.18904 28.9413 8.12155 28.9606C8.02169 28.9893 7.92011 29.0127 7.81839 29.0357C7.75364 29.0503 7.6895 29.0669 7.62404 29.0791C7.51142 29.1003 7.39708 29.1149 7.28262 29.1291C7.22616 29.1361 7.1705 29.1462 7.11366 29.1514C6.94173 29.1674 6.76828 29.1765 6.59328 29.1765C6.41816 29.1765 6.2446 29.1673 6.07259 29.1514ZM26.8358 26.5551C26.8358 26.995 26.4725 27.3529 26.0261 27.3529H12.1239C12.8139 26.3092 13.1866 25.0921 13.1866 23.8198C13.1866 20.5876 10.7757 17.9069 7.63433 17.4126V4.67279C7.63433 4.23294 7.99761 3.875 8.44403 3.875H26.0261C26.4725 3.875 26.8358 4.23294 26.8358 4.67279V8.29981L17.7321 17.2692C17.6825 17.318 17.6461 17.3767 17.6174 17.4393C17.6125 17.4502 17.6066 17.4601 17.6024 17.4711C17.5996 17.4784 17.595 17.4847 17.5925 17.492L16.284 21.3603C16.2144 21.5649 16.2686 21.7909 16.4236 21.9433C16.5338 22.052 16.6816 22.1103 16.8325 22.1103C16.8939 22.1103 16.9554 22.1007 17.0155 22.0811L20.9415 20.7916C20.9492 20.7891 20.9559 20.7843 20.9635 20.7815C20.9741 20.7775 20.9837 20.772 20.9941 20.7673C21.0579 20.739 21.1179 20.7028 21.1675 20.6538L26.8358 15.0688L26.8358 26.5551ZM18.3939 18.727L19.6879 20.0019L17.747 20.6394L18.3939 18.727ZM29.5103 10.8221L27.0153 13.2804L26.9984 13.297L20.7585 19.4451L18.959 17.6722L27.7115 9.04886C27.8416 8.91976 28.0707 8.91998 28.2017 9.04909L29.5103 10.3384C29.6454 10.4717 29.6454 10.6887 29.5103 10.8221Z" fill="#890C25"/>
<path d="M19.6644 10.5993C19.6644 7.77136 17.3292 5.47058 14.4591 5.47058C11.589 5.47058 9.25391 7.77136 9.25391 10.5993C9.25391 13.4272 11.589 15.7279 14.4591 15.7279C17.3292 15.7279 19.6644 13.4272 19.6644 10.5993ZM14.4591 14.5882C12.2266 14.5882 10.4106 12.7988 10.4106 10.5993C10.4106 8.39976 12.2266 6.61029 14.4591 6.61029C16.6917 6.61029 18.5076 8.39976 18.5076 10.5993C18.5076 12.7988 16.6917 14.5882 14.4591 14.5882Z" fill="#890C25"/>
<path d="M15.9007 9.05666L13.9962 10.9332L13.0171 9.96842C12.7911 9.74582 12.4251 9.74582 12.1992 9.96842C11.9733 10.191 11.9733 10.5516 12.1992 10.7742L13.5873 12.1419C13.7002 12.2532 13.848 12.3088 13.9962 12.3088C14.1444 12.3088 14.2922 12.2532 14.4051 12.1419L16.7186 9.86247C16.9445 9.63987 16.9445 9.27926 16.7186 9.05666C16.4926 8.83406 16.1266 8.83406 15.9007 9.05666Z" fill="#890C25"/>
<path d="M21.3992 6.61029H24.1753C24.4947 6.61029 24.7536 6.35519 24.7536 6.04043C24.7536 5.72568 24.4947 5.47058 24.1753 5.47058H21.3992C21.0797 5.47058 20.8208 5.72568 20.8208 6.04043C20.8208 6.35519 21.0797 6.61029 21.3992 6.61029Z" fill="#890C25"/>
<path d="M21.3992 8.88971H24.1753C24.4947 8.88971 24.7536 8.63461 24.7536 8.31985C24.7536 8.0051 24.4947 7.75 24.1753 7.75H21.3992C21.0797 7.75 20.8208 8.0051 20.8208 8.31985C20.8208 8.63461 21.0797 8.88971 21.3992 8.88971Z" fill="#890C25"/>
<path d="M24.6379 24.1617H16.7722C16.4528 24.1617 16.1938 24.4168 16.1938 24.7316C16.1938 25.0464 16.4528 25.3014 16.7722 25.3014H24.6379C24.9573 25.3014 25.2162 25.0464 25.2162 24.7316C25.2162 24.4168 24.9573 24.1617 24.6379 24.1617Z" fill="#890C25"/>
<path d="M22.7873 22.5662H24.6381C24.9575 22.5662 25.2164 22.3111 25.2164 21.9963C25.2164 21.6816 24.9575 21.4265 24.6381 21.4265H22.7873C22.4679 21.4265 22.209 21.6816 22.209 21.9963C22.209 22.3111 22.4679 22.5662 22.7873 22.5662Z" fill="#890C25"/>
</svg>
