<svg width="63" height="63" viewBox="0 0 63 63" fill="none" xmlns="http://www.w3.org/2000/svg">
<g clip-path="url(#clip0_15_106)">
<path d="M1.8876 27.6792C0.858308 27.6792 0.0239258 28.5137 0.0239258 29.5429V56.9157C0.0239258 57.945 0.858431 58.7794 1.8876 58.7794H13.116V27.6792H1.8876Z" fill="white"/>
<path d="M62.9761 37.9707C62.9761 35.6049 61.7049 33.5303 59.8097 32.3941C60.5358 31.3456 60.9617 30.0737 60.9617 28.7046C60.9617 25.1223 58.0472 22.2078 54.4649 22.2078H40.7503C41.1707 20.303 41.7455 17.4448 42.1458 14.4526C43.1875 6.66609 42.4756 2.34775 39.9055 0.862692C38.3032 -0.0629915 36.5756 -0.250761 35.0409 0.333466C33.8554 0.785049 32.2543 1.8953 31.3419 4.62018L27.7374 14.058C25.91 18.571 20.3139 23.3089 16.8434 25.9287V59.604C23.2755 61.8578 29.9875 63.0001 36.8351 63.0001H51.7787C55.3609 63.0001 58.2754 60.0856 58.2754 56.5034C58.2754 55.2489 57.918 54.0763 57.2997 53.0822C59.4654 52.0274 60.9614 49.8035 60.9614 47.2371C60.9614 45.8678 60.5356 44.5961 59.8095 43.5475C61.7049 42.4113 62.9761 40.3366 62.9761 37.9707Z" fill="white"/>
</g>
<defs>
<clipPath id="clip0_15_106">
<rect width="63" height="63" fill="white"/>
</clipPath>
</defs>
</svg>
