<svg width="22" height="22" viewBox="0 0 22 22" fill="none" xmlns="http://www.w3.org/2000/svg">
<path d="M2.54535 18.1344L3.10177 14.3192C3.13568 14.0699 3.24935 13.838 3.42718 13.6592L14.2081 2.86364C14.3477 2.72207 14.5214 2.61892 14.7125 2.56416C14.9036 2.5094 15.1056 2.50489 15.2989 2.55106C16.2887 2.82465 17.1858 3.36127 17.8949 4.10389C18.6355 4.81793 19.1684 5.7196 19.4368 6.71273C19.4829 6.90608 19.4784 7.10808 19.4237 7.29918C19.3689 7.49028 19.2658 7.66401 19.1242 7.80356L8.33135 18.5854C8.15234 18.7628 7.92024 18.8767 7.67043 18.9099L3.85618 19.4663C3.67601 19.4926 3.49217 19.476 3.31959 19.418C3.147 19.36 2.99053 19.2621 2.86285 19.1322C2.73517 19.0024 2.63989 18.8443 2.58473 18.6708C2.52956 18.4973 2.51607 18.3132 2.54535 18.1335M12.1685 4.91698L17.0846 9.83306" stroke="#890C25" stroke-width="1.5" stroke-linecap="round" stroke-linejoin="round"/>
</svg>
