<svg width="63" height="59" viewBox="0 0 63 59" fill="none" xmlns="http://www.w3.org/2000/svg">
<g clip-path="url(#clip0_15_79)">
<path d="M25.9629 29.3457H37.0371V33.0371H25.9629V29.3457Z" fill="white"/>
<path d="M51.1111 33.0371H40.7285V34.8828C40.7285 35.9027 39.9028 36.7285 38.8828 36.7285H24.1172C23.0972 36.7285 22.2715 35.9027 22.2715 34.8828V33.0371H11.8889C9.50249 33.0371 7.39194 31.5158 6.63636 29.2519L0 9.33948V49.6484C0 52.7015 2.48401 55.1855 5.53711 55.1855H57.4629C60.516 55.1855 63 52.7015 63 49.6484V9.34092L56.3632 29.2519C55.6081 31.5158 53.4975 33.0371 51.1111 33.0371Z" fill="white"/>
<path d="M38.8828 -0.185547H24.1172C21.0641 -0.185547 18.5801 2.29846 18.5801 5.35156V7.19727H3.17566L10.1369 28.084C10.3893 28.8391 11.0939 29.3457 11.8889 29.3457H22.2715V27.5C22.2715 26.4801 23.0972 25.6543 24.1172 25.6543H38.8828C39.9027 25.6543 40.7285 26.4801 40.7285 27.5V29.3457H51.1111C51.9061 29.3457 52.6107 28.8391 52.863 28.084L59.8248 7.19727H44.4199V5.35156C44.4199 2.29846 41.9359 -0.185547 38.8828 -0.185547ZM22.2715 7.19727V5.35156C22.2715 4.33306 23.0987 3.50586 24.1172 3.50586H38.8828C39.9013 3.50586 40.7285 4.33306 40.7285 5.35156V7.19727H22.2715Z" fill="white"/>
</g>
<defs>
<clipPath id="clip0_15_79">
<rect width="63" height="59" fill="white"/>
</clipPath>
</defs>
</svg>
