<svg width="21" height="21" viewBox="0 0 21 21" fill="none" xmlns="http://www.w3.org/2000/svg">
<g clip-path="url(#clip0_13_52)">
<path d="M19.3594 7.89797V7.24172C19.3596 7.1058 19.3324 6.97124 19.2794 6.84607C19.2264 6.72091 19.1487 6.60772 19.0509 6.51329C18.9522 6.41971 18.8357 6.34683 18.7083 6.29893C18.581 6.25103 18.4453 6.22908 18.3094 6.23438C17.0988 6.26715 15.8923 6.38999 14.7 6.60188L14.2669 6.68719C14.1739 5.76639 13.7475 4.91136 13.0679 4.28311C12.3883 3.65485 11.5025 3.29672 10.5773 3.27615C9.652 3.25558 8.75115 3.57399 8.04433 4.17142C7.33752 4.76886 6.87351 5.60409 6.73969 6.51985C6.73969 6.57891 6.73969 6.63469 6.73969 6.69047C5.40522 6.42493 4.05073 6.27235 2.69062 6.23438C2.55443 6.23044 2.41882 6.25381 2.2918 6.30312C2.16478 6.35243 2.04892 6.42667 1.95105 6.52148C1.85319 6.61628 1.7753 6.72973 1.72199 6.85512C1.66867 6.98051 1.64101 7.11531 1.64062 7.25157V7.90782C1.27005 7.98346 0.936995 8.18481 0.697821 8.4778C0.458648 8.77079 0.328048 9.13742 0.328125 9.51563V18.7031C0.328125 19.1383 0.500976 19.5555 0.808653 19.8632C0.960999 20.0156 1.14186 20.1364 1.34091 20.2189C1.53996 20.3013 1.7533 20.3438 1.96875 20.3438H19.0312C19.4664 20.3438 19.8837 20.1709 20.1913 19.8632C20.499 19.5555 20.6719 19.1383 20.6719 18.7031V9.51563C20.6742 9.13573 20.5447 8.76678 20.3053 8.47177C20.0659 8.17675 19.7316 7.97395 19.3594 7.89797ZM7.39594 6.61172C7.50028 5.92974 7.82541 5.30079 8.32149 4.82131C8.81756 4.34183 9.4572 4.03828 10.1423 3.95719C10.2611 3.94412 10.3805 3.93755 10.5 3.9375C11.271 3.93566 12.015 4.2211 12.5869 4.73813C12.9311 5.04577 13.2032 5.42561 13.3837 5.85054C13.5643 6.27547 13.6488 6.735 13.6312 7.19636C13.6137 7.65771 13.4945 8.10949 13.2822 8.51948C13.0699 8.92946 12.7698 9.28753 12.4031 9.56813C12.1251 9.77427 11.8988 10.0423 11.7422 10.3509C11.5856 10.6596 11.5029 11.0005 11.5008 11.3466C11.4999 11.4699 11.4506 11.5879 11.3634 11.6751C11.2762 11.7623 11.1582 11.8116 11.0348 11.8125H10.8281V9.51563C10.8283 9.43896 10.8016 9.36466 10.7527 9.30563L9.55828 7.875H11.3466L10.7592 8.46235C10.7055 8.52512 10.6774 8.60586 10.6806 8.68844C10.6838 8.77103 10.718 8.84936 10.7764 8.9078C10.8349 8.96624 10.9132 9.00047 10.9958 9.00366C11.0784 9.00685 11.1591 8.97876 11.2219 8.925L12.3703 7.77657C12.4153 7.7307 12.4458 7.67265 12.4581 7.60961C12.4704 7.54657 12.4639 7.4813 12.4394 7.42191C12.415 7.36252 12.3736 7.31161 12.3205 7.2755C12.2674 7.23939 12.2048 7.21966 12.1406 7.21875H8.85938C8.79697 7.21865 8.73583 7.23635 8.68313 7.26977C8.63043 7.30318 8.58835 7.35094 8.56182 7.40743C8.5353 7.46391 8.52544 7.52679 8.53339 7.58869C8.54134 7.65058 8.56678 7.70893 8.60672 7.75688L10.1719 9.63375V11.8125H9.96516C9.90326 11.8125 9.84198 11.8003 9.78483 11.7765C9.72769 11.7527 9.67582 11.7178 9.6322 11.6739C9.58859 11.63 9.5541 11.5779 9.53071 11.5206C9.50732 11.4633 9.4955 11.4019 9.49594 11.34C9.49213 10.9943 9.4084 10.6542 9.25129 10.3462C9.09418 10.0383 8.86796 9.77084 8.59031 9.56485C8.14434 9.22526 7.79808 8.77182 7.58791 8.25217C7.37774 7.73252 7.31143 7.16586 7.39594 6.61172ZM2.29688 7.25157C2.29728 7.20289 2.30744 7.15479 2.32676 7.1101C2.34607 7.06542 2.37415 7.02506 2.40932 6.99141C2.4445 6.95776 2.48607 6.93151 2.53157 6.9142C2.57706 6.89689 2.62557 6.88887 2.67422 6.89063C4.03485 6.92844 5.38963 7.08433 6.72328 7.35657C6.76094 7.89038 6.9125 8.40993 7.16776 8.88027C7.42302 9.35061 7.77606 9.76081 8.20312 10.0833C8.40264 10.2281 8.56577 10.4173 8.67965 10.636C8.79354 10.8547 8.85506 11.0968 8.85938 11.3433C8.85933 11.6384 8.9752 11.9217 9.18203 12.1322C9.38885 12.3427 9.67009 12.4636 9.96516 12.4688H11.0348C11.1834 12.4683 11.3303 12.4386 11.4673 12.3813C11.6043 12.3239 11.7286 12.2401 11.8332 12.1347C11.9377 12.0292 12.0205 11.9041 12.0766 11.7667C12.1327 11.6292 12.1612 11.4819 12.1603 11.3334C12.1656 11.089 12.2277 10.8491 12.3416 10.6327C12.4555 10.4163 12.6181 10.2294 12.8166 10.0866C13.2416 9.76218 13.5926 9.35089 13.846 8.88013C14.0995 8.40937 14.2497 7.88996 14.2866 7.35657L14.8313 7.24829C15.9857 7.04297 17.1537 6.92342 18.3258 6.89063C18.375 6.8881 18.4242 6.89616 18.4701 6.91427C18.5159 6.93239 18.5574 6.96013 18.5916 6.99563C18.6262 7.02929 18.6536 7.06961 18.6722 7.11416C18.6908 7.15871 18.7002 7.20657 18.6998 7.25485V17.6859C18.6999 17.7789 18.6642 17.8683 18.6 17.9355C18.5358 18.0028 18.4482 18.0427 18.3553 18.0469C15.7799 18.0813 13.2312 18.5735 10.8281 19.5005V13.7813H11.1562C11.2433 13.7813 11.3267 13.7467 11.3883 13.6851C11.4498 13.6236 11.4844 13.5402 11.4844 13.4531C11.4844 13.3661 11.4498 13.2826 11.3883 13.2211C11.3267 13.1596 11.2433 13.125 11.1562 13.125H9.84375C9.75673 13.125 9.67327 13.1596 9.61173 13.2211C9.55019 13.2826 9.51562 13.3661 9.51562 13.4531C9.51562 13.5402 9.55019 13.6236 9.61173 13.6851C9.67327 13.7467 9.75673 13.7813 9.84375 13.7813H10.1719V19.5038C7.76943 18.5743 5.22043 18.081 2.64469 18.0469C2.55125 18.0435 2.46279 18.004 2.39791 17.9366C2.33303 17.8693 2.29681 17.7794 2.29688 17.6859V7.25157ZM0.984375 18.7031V9.51563C0.984946 9.31254 1.04832 9.1146 1.16581 8.94894C1.2833 8.78328 1.44915 8.65801 1.64062 8.59032V17.6859C1.64212 17.9496 1.74531 18.2026 1.92869 18.3921C2.11207 18.5816 2.3615 18.693 2.625 18.7031C4.68502 18.752 6.7286 19.0832 8.69859 19.6875H1.96875C1.70768 19.6875 1.4573 19.5838 1.27269 19.3992C1.08809 19.2146 0.984375 18.9642 0.984375 18.7031ZM20.0156 18.7031C20.0156 18.9642 19.9119 19.2146 19.7273 19.3992C19.5427 19.5838 19.2923 19.6875 19.0312 19.6875H12.2981C14.2692 19.0829 16.3139 18.7517 18.375 18.7031C18.6385 18.693 18.8879 18.5816 19.0713 18.3921C19.2547 18.2026 19.3579 17.9496 19.3594 17.6859V8.58047C19.5524 8.64873 19.7194 8.77549 19.837 8.94311C19.9547 9.11073 20.0171 9.31086 20.0156 9.51563V18.7031Z" fill="white"/>
<path d="M3.5864 8.85938C4.01953 8.88891 4.45594 8.92829 4.8825 8.98079H4.92187C5.0089 8.98601 5.09443 8.95645 5.15966 8.8986C5.22489 8.84076 5.26446 8.75938 5.26969 8.67235C5.27491 8.58533 5.24534 8.49979 5.1875 8.43457C5.12966 8.36934 5.04827 8.32976 4.96125 8.32454C4.52484 8.27204 4.07531 8.22938 3.63234 8.19985C3.54532 8.19419 3.45961 8.22334 3.39408 8.28088C3.32854 8.33841 3.28855 8.41962 3.28289 8.50665C3.27723 8.59367 3.30638 8.67938 3.36391 8.74491C3.42145 8.81045 3.50266 8.85044 3.58969 8.8561L3.5864 8.85938Z" fill="white"/>
<path d="M3.5864 10.2145C4.38689 10.2667 5.18418 10.3598 5.97515 10.4934H6.03094C6.07403 10.4971 6.11742 10.4922 6.15863 10.4791C6.19984 10.466 6.23807 10.4449 6.27112 10.417C6.30418 10.3892 6.33143 10.355 6.3513 10.3166C6.37118 10.2782 6.38329 10.2363 6.38695 10.1932C6.39061 10.1501 6.38575 10.1067 6.37265 10.0655C6.35954 10.0243 6.33845 9.98606 6.31057 9.953C6.28269 9.91994 6.24857 9.8927 6.21016 9.87282C6.17175 9.85295 6.12981 9.84083 6.08672 9.83717C5.27403 9.69928 4.45484 9.60291 3.63234 9.54842C3.54532 9.54277 3.45961 9.57191 3.39408 9.62945C3.32854 9.68698 3.28855 9.7682 3.28289 9.85522C3.27723 9.94224 3.30638 10.028 3.36391 10.0935C3.42145 10.159 3.50266 10.199 3.58969 10.2047L3.5864 10.2145Z" fill="white"/>
<path d="M3.28125 12.1636C3.27584 12.2501 3.30491 12.3353 3.36208 12.4004C3.41926 12.4656 3.49991 12.5055 3.5864 12.5114C5.34142 12.6189 7.0774 12.9351 8.75765 13.4531C8.84076 13.4792 8.93084 13.4712 9.00806 13.4309C9.08529 13.3906 9.14334 13.3213 9.16945 13.2382C9.19556 13.1551 9.18758 13.065 9.14728 12.9878C9.10697 12.9106 9.03764 12.8525 8.95453 12.8264C7.22471 12.2882 5.43698 11.9577 3.62906 11.842C3.58489 11.8394 3.54064 11.8457 3.49897 11.8605C3.45729 11.8754 3.41906 11.8986 3.38657 11.9286C3.35408 11.9587 3.328 11.995 3.3099 12.0353C3.2918 12.0757 3.28205 12.1193 3.28125 12.1636Z" fill="white"/>
<path d="M8.95781 14.4375C7.22798 13.8993 5.44026 13.5689 3.63234 13.4531C3.58925 13.4503 3.54603 13.4561 3.50515 13.47C3.46427 13.4839 3.42653 13.5057 3.39408 13.5342C3.32854 13.5917 3.28855 13.6729 3.28289 13.7599C3.27723 13.847 3.30638 13.9327 3.36391 13.9982C3.42145 14.0637 3.50266 14.1037 3.58969 14.1094C5.34483 14.218 7.08081 14.5353 8.76094 15.0544C8.83789 15.0657 8.91636 15.0493 8.98234 15.0081C9.04832 14.9669 9.09753 14.9036 9.12117 14.8295C9.14482 14.7554 9.14138 14.6753 9.11146 14.6035C9.08154 14.5317 9.02708 14.4729 8.95781 14.4375Z" fill="white"/>
<path d="M8.95781 16.0781C7.22799 15.5399 5.44026 15.2095 3.63234 15.0938C3.54532 15.0881 3.45961 15.1173 3.39408 15.1748C3.32854 15.2323 3.28855 15.3135 3.28289 15.4006C3.27723 15.4876 3.30638 15.5733 3.36391 15.6388C3.42145 15.7044 3.50266 15.7444 3.58969 15.75C5.34533 15.8717 7.08022 16.2021 8.75766 16.7344C8.84468 16.7609 8.93868 16.7518 9.01899 16.7091C9.09929 16.6663 9.15932 16.5934 9.18586 16.5063C9.2124 16.4193 9.20329 16.3253 9.16052 16.245C9.11775 16.1647 9.04484 16.1047 8.95781 16.0781Z" fill="white"/>
<path d="M12.1406 13.4728C12.1732 13.4777 12.2064 13.4777 12.2391 13.4728C13.9192 12.9536 15.6552 12.6364 17.4103 12.5278C17.4973 12.5221 17.5785 12.4821 17.6361 12.4166C17.6936 12.3511 17.7228 12.2654 17.7171 12.1783C17.7114 12.0913 17.6715 12.0101 17.6059 11.9526C17.5404 11.895 17.4547 11.8659 17.3677 11.8715C15.5597 11.9873 13.772 12.3177 12.0422 12.8559C11.9991 12.8624 11.9577 12.8773 11.9204 12.8997C11.883 12.9222 11.8505 12.9518 11.8246 12.9868C11.7723 13.0576 11.7502 13.1462 11.7633 13.2333C11.7763 13.3203 11.8234 13.3986 11.8942 13.4509C11.965 13.5032 12.0536 13.5252 12.1406 13.5122V13.4728Z" fill="white"/>
<path d="M12.1406 15.0708C12.1732 15.0758 12.2064 15.0758 12.2391 15.0708C13.9185 14.5461 15.6545 14.2234 17.4103 14.1094C17.4534 14.1066 17.4955 14.0953 17.5343 14.0763C17.573 14.0572 17.6076 14.0307 17.6361 13.9982C17.6646 13.9658 17.6864 13.928 17.7003 13.8871C17.7142 13.8463 17.7199 13.803 17.7171 13.7599C17.7143 13.7169 17.703 13.6747 17.684 13.636C17.6649 13.5973 17.6384 13.5627 17.6059 13.5342C17.5735 13.5057 17.5357 13.4839 17.4948 13.47C17.454 13.4561 17.4107 13.4503 17.3677 13.4531C15.5597 13.5689 13.772 13.8993 12.0422 14.4375C11.9552 14.4506 11.8769 14.4977 11.8246 14.5684C11.7723 14.6392 11.7502 14.7278 11.7633 14.8149C11.7763 14.9019 11.8234 14.9802 11.8942 15.0325C11.965 15.0848 12.0536 15.1068 12.1406 15.0938V15.0708Z" fill="white"/>
<path d="M12.1406 16.7344C12.1732 16.7393 12.2064 16.7393 12.2391 16.7344C13.9192 16.2152 15.6552 15.898 17.4103 15.7894C17.4973 15.7837 17.5785 15.7437 17.6361 15.6782C17.6936 15.6127 17.7228 15.527 17.7171 15.4399C17.7114 15.3529 17.6715 15.2717 17.6059 15.2142C17.5404 15.1566 17.4547 15.1275 17.3677 15.1331C15.5613 15.236 13.7736 15.5533 12.0422 16.0781C11.9552 16.0912 11.8769 16.1383 11.8246 16.209C11.7723 16.2798 11.7502 16.3685 11.7633 16.4555C11.7763 16.5425 11.8234 16.6208 11.8942 16.6731C11.965 16.7254 12.0536 16.7474 12.1406 16.7344Z" fill="white"/>
<path d="M10.5 2.29688C10.587 2.29688 10.6705 2.2623 10.732 2.20077C10.7936 2.13923 10.8281 2.05577 10.8281 1.96875V0.65625C10.8281 0.569226 10.7936 0.485766 10.732 0.424231C10.6705 0.362695 10.587 0.328125 10.5 0.328125C10.413 0.328125 10.3295 0.362695 10.268 0.424231C10.2064 0.485766 10.1719 0.569226 10.1719 0.65625V1.96875C10.1719 2.05577 10.2064 2.13923 10.268 2.20077C10.3295 2.2623 10.413 2.29688 10.5 2.29688Z" fill="white"/>
<path d="M12.8198 3.2583C12.863 3.25855 12.9058 3.25027 12.9458 3.23394C12.9858 3.21761 13.0221 3.19355 13.0528 3.16314L13.9814 2.23455C14.0352 2.17178 14.0632 2.09104 14.0601 2.00845C14.0569 1.92587 14.0226 1.84754 13.9642 1.7891C13.9058 1.73066 13.8274 1.69643 13.7448 1.69324C13.6623 1.69005 13.5815 1.71814 13.5187 1.77189L12.5869 2.69721C12.5406 2.7431 12.509 2.80174 12.4962 2.86564C12.4834 2.92954 12.4899 2.99581 12.5149 3.056C12.5399 3.1162 12.5822 3.16758 12.6365 3.20361C12.6909 3.23964 12.7547 3.25868 12.8198 3.2583Z" fill="white"/>
<path d="M7.94719 3.16313C8.00996 3.21688 8.09071 3.24497 8.17329 3.24178C8.25587 3.23859 8.3342 3.20436 8.39264 3.14592C8.45108 3.08749 8.48531 3.00915 8.4885 2.92657C8.49169 2.84399 8.4636 2.76324 8.40985 2.70047L7.48453 1.7686C7.42176 1.71484 7.34102 1.68675 7.25844 1.68994C7.17586 1.69313 7.09752 1.72737 7.03908 1.7858C6.98065 1.84424 6.94641 1.92258 6.94322 2.00516C6.94003 2.08774 6.96812 2.16848 7.02188 2.23125L7.94719 3.16313Z" fill="white"/>
</g>
<defs>
<clipPath id="clip0_13_52">
<rect width="21" height="21" fill="white"/>
</clipPath>
</defs>
</svg>
