<svg width="56" height="56" viewBox="0 0 56 56" fill="none" xmlns="http://www.w3.org/2000/svg">
<path fill-rule="evenodd" clip-rule="evenodd" d="M28 45.7733L29.6827 43.8773C31.592 41.6924 33.3102 39.6133 34.8373 37.64L36.0987 35.976C41.3662 28.8809 44 23.2516 44 19.088C44 10.2027 36.8373 3 28 3C19.1627 3 12 10.2027 12 19.088C12 23.2516 14.6338 28.8818 19.9013 35.9787L21.1627 37.6427C23.3428 40.4355 25.6234 43.1457 28 45.7733Z" stroke="#890C25" stroke-width="2" stroke-linecap="round" stroke-linejoin="round"/>
<path d="M27.9997 25.6667C31.6816 25.6667 34.6663 22.6819 34.6663 19C34.6663 15.3181 31.6816 12.3333 27.9997 12.3333C24.3178 12.3333 21.333 15.3181 21.333 19C21.333 22.6819 24.3178 25.6667 27.9997 25.6667Z" stroke="#890C25" stroke-width="2" stroke-linecap="round" stroke-linejoin="round"/>
</svg>
