<svg width="63" height="63" viewBox="0 0 63 63" fill="none" xmlns="http://www.w3.org/2000/svg">
<g clip-path="url(#clip0_15_45)">
<path d="M46.3887 29.7773C37.2289 29.7773 29.7773 37.2289 29.7773 46.3887C29.7773 55.5485 37.2289 63 46.3887 63C55.5485 63 63 55.5485 63 46.3887C63 37.2289 55.5485 29.7773 46.3887 29.7773ZM53.7715 48.2344H46.3887C45.3687 48.2344 44.543 47.4086 44.543 46.3887V39.0059C44.543 37.9859 45.3687 37.1602 46.3887 37.1602C47.4086 37.1602 48.2344 37.9859 48.2344 39.0059V44.543H53.7715C54.7914 44.543 55.6172 45.3687 55.6172 46.3887C55.6172 47.4086 54.7914 48.2344 53.7715 48.2344Z" fill="white"/>
<path d="M59.1855 5.66016C59.1855 4.62627 58.3737 3.81445 57.3398 3.81445H48.1113V9.35156C48.1113 10.385 47.2995 11.1973 46.2656 11.1973C45.2317 11.1973 44.4199 10.385 44.4199 9.35156V3.81445H37.0371V9.35156C37.0371 10.385 36.2253 11.1973 35.1914 11.1973C34.1575 11.1973 33.3457 10.385 33.3457 9.35156V3.81445H25.9629V9.35156C25.9629 10.385 25.1511 11.1973 24.1172 11.1973C23.0833 11.1973 22.2715 10.385 22.2715 9.35156V3.81445H14.8887V9.35156C14.8887 10.385 14.0769 11.1973 13.043 11.1973C12.0091 11.1973 11.1973 10.385 11.1973 9.35156V3.81445H1.8457C0.811821 3.81445 0 4.62627 0 5.66016V14.8887H59.1855V5.66016Z" fill="white"/>
<path d="M27.8086 37.0371H28.2518C28.9256 35.7278 29.686 34.4709 30.6166 33.3457H27.8086C26.7887 33.3457 25.9629 32.5199 25.9629 31.5C25.9629 30.4801 26.7887 29.6543 27.8086 29.6543H31.5C32.2561 29.6543 32.9016 30.1104 33.1871 30.7608C36.7232 27.7735 41.2846 25.9629 46.2656 25.9629H42.5742C41.5543 25.9629 40.7285 25.1371 40.7285 24.1172C40.7285 23.0972 41.5543 22.2715 42.5742 22.2715H46.2656C47.2856 22.2715 48.1113 23.0972 48.1113 24.1172C48.1113 25.1371 47.2856 25.9629 46.2656 25.9629C51.1697 25.9629 55.6729 27.7115 59.1855 30.6166V18.5801H0V53.6484C0 54.6684 0.82576 55.4941 1.8457 55.4941H28.2042C26.7819 52.7217 25.9629 49.5898 25.9629 46.2656C25.9629 44.2339 26.3272 42.2978 26.8853 40.4459C26.3436 40.1243 25.9629 39.5591 25.9629 38.8828C25.9629 37.8629 26.7887 37.0371 27.8086 37.0371ZM27.8086 22.2715H31.5C32.5199 22.2715 33.3457 23.0972 33.3457 24.1172C33.3457 25.1371 32.5199 25.9629 31.5 25.9629H27.8086C26.7887 25.9629 25.9629 25.1371 25.9629 24.1172C25.9629 23.0972 26.7887 22.2715 27.8086 22.2715ZM16.7344 48.1113H13.043C12.023 48.1113 11.1973 47.2856 11.1973 46.2656C11.1973 45.2457 12.023 44.4199 13.043 44.4199H16.7344C17.7543 44.4199 18.5801 45.2457 18.5801 46.2656C18.5801 47.2856 17.7543 48.1113 16.7344 48.1113ZM16.7344 40.7285H13.043C12.023 40.7285 11.1973 39.9028 11.1973 38.8828C11.1973 37.8629 12.023 37.0371 13.043 37.0371H16.7344C17.7543 37.0371 18.5801 37.8629 18.5801 38.8828C18.5801 39.9028 17.7543 40.7285 16.7344 40.7285ZM16.7344 33.3457H13.043C12.023 33.3457 11.1973 32.5199 11.1973 31.5C11.1973 30.4801 12.023 29.6543 13.043 29.6543H16.7344C17.7543 29.6543 18.5801 30.4801 18.5801 31.5C18.5801 32.5199 17.7543 33.3457 16.7344 33.3457ZM16.7344 25.9629H13.043C12.023 25.9629 11.1973 25.1371 11.1973 24.1172C11.1973 23.0972 12.023 22.2715 13.043 22.2715H16.7344C17.7543 22.2715 18.5801 23.0972 18.5801 24.1172C18.5801 25.1371 17.7543 25.9629 16.7344 25.9629Z" fill="white"/>
<path d="M14.8887 1.8457C14.8887 0.811821 14.0769 0 13.043 0C12.0091 0 11.1973 0.811821 11.1973 1.8457V3.81445H14.8887V1.8457Z" fill="white"/>
<path d="M25.9629 1.8457C25.9629 0.811821 25.1511 0 24.1172 0C23.0833 0 22.2715 0.811821 22.2715 1.8457V3.81445H25.9629V1.8457Z" fill="white"/>
<path d="M37.0371 1.8457C37.0371 0.811821 36.2253 0 35.1914 0C34.1575 0 33.3457 0.811821 33.3457 1.8457V3.81445H37.0371V1.8457Z" fill="white"/>
<path d="M48.1113 1.8457C48.1113 0.811821 47.2995 0 46.2656 0C45.2317 0 44.4199 0.811821 44.4199 1.8457V3.81445H48.1113V1.8457Z" fill="white"/>
</g>
<defs>
<clipPath id="clip0_15_45">
<rect width="63" height="63" fill="white"/>
</clipPath>
</defs>
</svg>
