<svg width="15" height="17" viewBox="0 0 15 17" fill="none" xmlns="http://www.w3.org/2000/svg">
<path fill-rule="evenodd" clip-rule="evenodd" d="M7.29171 0C6.2419 0 5.23508 0.386707 4.49275 1.07505C3.75042 1.7634 3.33338 2.69699 3.33338 3.67045C3.33338 4.64392 3.75042 5.57751 4.49275 6.26586C5.23508 6.9542 6.2419 7.80664 7.29172 7.80664C8.34153 7.80664 9.34835 6.9542 10.0907 6.26586C10.833 5.57751 11.25 4.64392 11.25 3.67045C11.25 2.69699 10.833 1.7634 10.0907 1.07505C9.34835 0.386707 8.34153 0 7.29171 0ZM4.58338 3.67045C4.58338 3.0044 4.86872 2.36562 5.37663 1.89465C5.88454 1.42368 6.57342 1.15909 7.29171 1.15909C8.01001 1.15909 8.69888 1.42368 9.20679 1.89465C9.71471 2.36562 10 3.0044 10 3.67045C10 4.33651 9.71471 4.97529 9.20679 5.44626C8.69888 5.91723 8.01001 6.18182 7.29171 6.18182C6.57342 6.18182 5.88454 5.91723 5.37663 5.44626C4.86872 4.97529 4.58338 4.33651 4.58338 3.67045ZM7.29171 8.5C5.36421 8.5 3.58755 8.90646 2.27171 9.59264C0.975047 10.2695 4.65849e-05 11.2942 4.65849e-05 12.5568V12.6356C-0.000786749 13.5335 -0.00162017 14.6602 1.06421 15.4654C1.58838 15.861 2.32255 16.143 3.31421 16.3285C4.30755 16.5155 5.60338 16.6136 7.29171 16.6136C8.98005 16.6136 10.275 16.5155 11.27 16.3285C12.2617 16.143 12.995 15.861 13.52 15.4654C14.5859 14.6602 14.5842 13.5335 14.5834 12.6356V12.5568C14.5834 11.2942 13.6084 10.2695 12.3125 9.59264C10.9959 8.90646 9.22005 8.5 7.29171 8.5ZM1.25005 12.5568C1.25005 11.8992 1.76838 11.1852 2.88421 10.6034C3.98088 10.0315 5.53755 9.65909 7.29255 9.65909C9.04588 9.65909 10.6025 10.0315 11.6992 10.6034C12.8159 11.1852 13.3334 11.8992 13.3334 12.5568C13.3334 13.5675 13.3 14.1363 12.73 14.5659C12.4217 14.7993 11.905 15.0272 11.0217 15.1926C10.1409 15.358 8.93671 15.4545 7.29171 15.4545C5.64671 15.4545 4.44171 15.358 3.56171 15.1926C2.67838 15.0272 2.16171 14.7993 1.85338 14.5667C1.28338 14.1363 1.25005 13.5675 1.25005 12.5568Z" fill="#890C25"/>
</svg>
